<?xml version="1.0" encoding="utf-8"?>
<!-- Generator: Adobe Illustrator 23.0.0, SVG Export Plug-In . SVG Version: 6.00 Build 0)  -->
<svg version="1.1" id="Layer_1" xmlns="http://www.w3.org/2000/svg" xmlns:xlink="http://www.w3.org/1999/xlink" x="0px" y="0px"
	 viewBox="0 0 2134.5 761" style="enable-background:new 0 0 2134.5 761;" xml:space="preserve">
<style type="text/css">
	.st0{fill-rule:evenodd;clip-rule:evenodd;fill:#FFFFFF;}
	.st1{fill-rule:evenodd;clip-rule:evenodd;fill:#F8B71D;}
	.st2{fill-rule:evenodd;clip-rule:evenodd;fill:#407DB8;}
	.st3{fill-rule:evenodd;clip-rule:evenodd;fill:url(#SVGID_1_);}
	.st4{clip-path:url(#SVGID_2_);}
	.st5{fill-rule:evenodd;clip-rule:evenodd;fill:#162331;}
	.st6{fill-rule:evenodd;clip-rule:evenodd;fill:#5592C8;}
	.st7{fill-rule:evenodd;clip-rule:evenodd;fill:#88BCE8;}
	.st8{fill:#FFFFFF;}
</style>
<g>
	<g id="m:_Stroked_in_Illustrator_1.2_center_9_">
		<g>
			<path class="st0" d="M976,173.2c-45.9,0-82.9,18.5-112.9,56.4c-20.2-36.4-55.9-56.4-101.2-56.4c-49.9,0-79.3,25.9-99.2,51.3
				v-44.3h-83.8v336.6h83.8V330.1c0-48.7,26.9-80.1,68.6-80.1c41.2,0,64.8,28.5,64.8,78.2v188.6h83.8V330.1
				c0-49.4,26.3-80.1,68.6-80.1c41.8,0,64.8,28,64.8,78.8v188h83.8V305.2C1097.2,222.5,1051.9,173.2,976,173.2z"/>
		</g>
	</g>
	<g id="Lab_9_">
		<g>
			<path class="st1" d="M1263.8,64.3h-83.2v452.4h243.5v-82h-160.3V64.3z M2088.7,223.4c-30.5-33-67.6-49.4-111.2-49.4
				c-20.1,0-38.9,3.8-56.5,11.4c-17.6,7.6-34,18.9-49.2,34.1V71.6h-83.3v445h83.3v-35.3c16.4,15.6,32.9,26.8,49.5,33.6
				c16.6,6.9,34.5,10.3,53.8,10.3c43.2,0,80.6-16.7,112.2-50.2c31.5-33.5,47.3-75.1,47.3-124.8
				C2134.5,298.6,2119.2,256.4,2088.7,223.4z M2024.6,420.5c-17.5,18.6-39.1,27.9-64.7,27.9c-26.4,0-48.4-9.2-65.8-27.5
				c-17.4-18.3-26.1-42.3-26.1-72c0-29.1,8.7-52.6,26.1-70.6c17.4-18,39.3-27,65.8-27c26.2,0,47.9,9.2,65.2,27.5
				c17.2,18.3,25.8,41.8,25.8,70.5C2050.9,378.2,2042.2,401.9,2024.6,420.5z M1719,211.4c-24.1-24.7-65.4-38.4-116.9-38.4
				c-54.7,0-91.9,11.1-129.7,28l20.5,61.4c31.3-13,60.3-20.5,98.8-20.5c55.4,0,85.4,23.2,85.4,72.1v2.8
				c-26.7-8.5-54.1-13.8-92.5-13.8c-84.1,0-142.6,36.5-142.6,110.7v4.1c0,69,57.9,107.3,122.4,107.3c52.8,0,88.6-16,112.1-44v35.7
				h83.2V317.5C1759.6,264.1,1744.4,236.1,1719,211.4z M1678.3,386.6c0,36.1-38.6,77.5-89.2,77.5c-36.7,0-63.5-18.3-63.5-50.6v-1.3
				c0-34.8,27.5-55.7,76.8-55.7c30.4,0,56.3,5.7,75.9,13.3V386.6z"/>
		</g>
	</g>
</g>
<g>
	<g>
		<path class="st2" d="M286.2,742.5l-0.1-21.6h37l0.1,21.6c0,10.2-8.3,18.5-18.5,18.5C294.5,761,286.2,752.7,286.2,742.5z"/>
		<path class="st2" d="M183.5,742.5l-0.1-21.6h37l0.1,21.6c0,10.2-8.3,18.5-18.5,18.5C191.8,761,183.5,752.7,183.5,742.5z"/>
		<path class="st2" d="M80.8,742.5l-0.1-21.6h37l0.1,21.6c0,10.2-8.3,18.5-18.5,18.5C89.1,761,80.8,752.7,80.8,742.5z"/>
	</g>
	<path class="st2" d="M358.7,697.7L341.8,726h-281l-15.6-28.3H358.7z"/>
	<linearGradient id="SVGID_1_" gradientUnits="userSpaceOnUse" x1="14.8006" y1="262.634" x2="389.1691" y2="262.634">
		<stop  offset="0" style="stop-color:#F9AC1A"/>
		<stop  offset="1" style="stop-color:#F9C51A"/>
	</linearGradient>
	<path class="st3" d="M14.8,525.3V198.5h0.1c0.6-89.8,72.9-163.6,166-173.4c4.9-1.2,8.4-4.4,9.8-6.9c2.7-5.2,5.7-11,7.6-15.7
		c1.2-2.8,6.3-3.6,7.7,0.1c1.8,4.8,4.9,10.4,7.6,15.6c1.3,2.5,4.3,5.7,9.7,6.9c93,9.9,165.3,83.6,165.9,173.4h0.1v326.8H14.8z"/>
	<g>
		<defs>
			<path id="SVGID_5_" d="M14.8,525.3V198.5h0.1c0.6-89.8,72.9-163.6,166-173.4c4.9-1.2,8.4-4.4,9.8-6.9c2.7-5.2,5.7-11,7.6-15.7
				c1.2-2.8,6.3-3.6,7.7,0.1c1.8,4.8,4.9,10.4,7.6,15.6c1.3,2.5,4.3,5.7,9.7,6.9c93,9.9,165.3,83.6,165.9,173.4h0.1v326.8H14.8z"/>
		</defs>
		<clipPath id="SVGID_2_">
			<use xlink:href="#SVGID_5_"  style="overflow:visible;"/>
		</clipPath>
		<g class="st4">
			<path class="st5" d="M316.2,406.6c-22.6,0-29.5,8.9-29.5,25.3c0,28,34.6,61.2,34.6,112.6c0,37.4-22.2,68.7-70.5,68.7h-22.5v-45.8
				h10.1c17.7,0,23.8-10.3,23.8-27.1c0-37.8-20.9-72.4-20.9-100.9c0-29,9.5-42.5,44.2-49.9c-34.6-7.5-44.2-30-44.2-58.9
				c0-28,20.9-51.4,20.9-89.7c0-16.8-8.7-30.2-29.4-30.2c-7.7,0-14,0-19.9,0v-35.1c52.1-26.7,95.4,20.8,95.4,55.9
				c0,50.9-21.5,90.2-21.5,118.3c0,15.9,7,23,29.5,23h15.4v34H316.2z M191.2,210.6c-5.4,0-11.2,0-18.1,0
				c-20.7,0-29.4,13.4-29.4,30.2c0,38.3,20.9,61.7,20.9,89.7c0,29-11.4,51.5-46,58.9c34.6,7.5,46,21,46,49.9
				c0,28.5-20.9,63.1-20.9,100.9c0,16.8,6,27.1,23.8,27.1h10.1v45.8H155c-48.3,0-70.5-31.3-70.5-68.7c0-51.4,34.6-84.6,34.6-112.6
				c0-16.4-5.8-25.3-28.3-25.3H72.3v-34h18.5c22.6,0,28.3-7.1,28.3-23c0-28-21.5-67.3-21.5-118.3c0-34.8,42.1-81.6,93.5-56.6V210.6z
				"/>
		</g>
	</g>
	<path class="st6" d="M384.2,546.8c-2,5.8-2.8,12.6-3.1,18.3c0,0.1,0,0.3,0,0.4v117.3c0,10.2-8.3,18.5-18.5,18.5H41.4
		c-10.2,0-18.5-8.3-18.5-18.5V565.4c0-0.1,0-0.3,0-0.4c-0.3-5.6-1.1-12.3-3.1-18.1C15.2,533.7,0,528.4,0,528.4l1-7.2H403l1,7.2
		C404,528.4,388.7,533.6,384.2,546.8z"/>
	<path class="st7" d="M381,612.6h-125c-7.8,0-14.2-6.4-14.2-14.2c0-7.9,6.4-14.2,14.2-14.2h125V612.6z"/>
	<path class="st7" d="M22.9,584.2l125,0c7.8,0,14.2,6.4,14.2,14.2c0,7.9-6.4,14.2-14.2,14.2l-125,0L22.9,584.2z"/>
</g>
<g>
	<path class="st8" d="M648.3,672.5h-37.9l-9.1,27.7h-20.2l38-107.9h20.5l38,107.9h-20.2L648.3,672.5z M629.3,610.9
		c0,0-2.4,10.6-4.6,16.7l-9.6,28.9h28.3l-9.6-28.9c-2-6.1-4.3-16.7-4.3-16.7H629.3z"/>
	<path class="st8" d="M733.8,592.2h21l21.1,53.4c2.4,6.4,5.5,15.8,5.5,15.8h0.3c0,0,2.9-9.4,5.3-15.8l21.1-53.4h21l8.7,107.9h-19.5
		l-4.6-60.4c-0.5-7.1-0.2-16.7-0.2-16.7h-0.3c0,0-3.2,10.5-5.8,16.7l-17.5,41.8h-17.2l-17.3-41.8c-2.6-6.2-5.9-16.9-5.9-16.9h-0.3
		c0,0,0.3,9.7-0.2,16.9l-4.6,60.4H725L733.8,592.2z"/>
	<path class="st8" d="M892.5,620.8c23.7,0,42.7,16.9,42.7,40.6c0,23.9-19,40.6-42.6,40.6c-23.7,0-42.7-16.7-42.7-40.6
		C849.9,637.6,868.9,620.8,892.5,620.8z M892.7,685.5c12.5,0,23-9.7,23-24.2c0-14.3-10.5-24.2-23-24.2c-12.6,0-23.1,9.9-23.1,24.2
		C869.5,675.8,880,685.5,892.7,685.5z"/>
	<path class="st8" d="M950.7,622.6h18.5v9c0,2.9-0.3,5.3-0.3,5.3h0.3c3.3-6.5,11.9-16.1,27.5-16.1c17.2,0,26.9,9,26.9,29.5v49.9
		h-19.2v-45.9c0-9.4-2.4-15.8-12.3-15.8c-10.3,0-17.9,6.5-20.8,15.8c-1.1,3.2-1.4,6.7-1.4,10.3v35.6h-19.3V622.6z"/>
	<path class="st8" d="M1073.2,715.6c11.9,0,21.9-5,21.9-18.8v-4.6c0-1.8,0.3-4.1,0.3-4.1h-0.3c-4.6,6.8-11.2,10.5-21.6,10.5
		c-22.2,0-34.8-17.9-34.8-39.2s12-38.6,34.4-38.6c16.9,0,23,9.9,23,9.9h0.5c0,0-0.2-0.9-0.2-2.1v-5.9h18.1v72.8
		c0,26.6-20.7,36.6-40.9,36.6c-9.7,0-20.1-2.7-27.5-6.7l5.8-14.7C1051.8,710.6,1061.5,715.6,1073.2,715.6z M1095.6,659.5
		c0-17.6-8.7-22.3-19.2-22.3c-11.7,0-18.2,8.5-18.2,21.6c0,13.5,7,23.6,19.5,23.6C1086.9,682.3,1095.6,677,1095.6,659.5z"/>
	<path class="st8" d="M1169.4,620.8c23.7,0,42.7,16.9,42.7,40.6c0,23.9-19,40.6-42.6,40.6c-23.7,0-42.7-16.7-42.7-40.6
		C1126.9,637.6,1145.9,620.8,1169.4,620.8z M1169.6,685.5c12.5,0,23-9.7,23-24.2c0-14.3-10.5-24.2-23-24.2
		c-12.6,0-23.1,9.9-23.1,24.2C1146.5,675.8,1157,685.5,1169.6,685.5z"/>
	<path class="st8" d="M1227.6,592.2h36.8c33.3,0,55,19.8,55,53.8s-21.7,54.1-55,54.1h-36.8V592.2z M1263.4,683.2
		c21.9,0,35.9-12.9,35.9-37.2c0-24-14.3-36.9-35.9-36.9h-16.1v74.2H1263.4z"/>
	<path class="st8" d="M1333.9,592.2h38.6c19.5,0,33.3,10,33.3,27.8c0,10-4.9,18.7-13.1,23.1v0.3c11.9,3.5,17.5,14.4,17.5,25.4
		c0,21.6-17.3,31.3-37.2,31.3h-39.1V592.2z M1372.5,636.3c8.5,0,13.4-6.1,13.4-13.8c0-7.8-4.6-13.4-13.7-13.4h-18.7v27.2H1372.5z
		 M1374.5,683.2c10,0,15.7-6.5,15.7-15.7c0-9-5.8-15.5-15.7-15.5h-21v31.2H1374.5z"/>
	<path class="st8" d="M1516.4,590.4c26.3,0,39.8,14.7,39.8,14.7l-9.4,14.6c0,0-12.3-11.4-29.5-11.4c-22.8,0-36.2,17-36.2,37.1
		c0,20.5,13.8,38.6,36.3,38.6c18.7,0,31.3-13.7,31.3-13.7l10.3,14.1c0,0-14.9,17.5-42.4,17.5c-33,0-55.8-24.5-55.8-56.2
		C1460.9,614.4,1484.6,590.4,1516.4,590.4z"/>
	<path class="st8" d="M1610.9,620.8c23.7,0,42.7,16.9,42.7,40.6c0,23.9-19,40.6-42.6,40.6c-23.7,0-42.7-16.7-42.7-40.6
		C1568.4,637.6,1587.4,620.8,1610.9,620.8z M1611.1,685.5c12.5,0,23-9.7,23-24.2c0-14.3-10.5-24.2-23-24.2
		c-12.6,0-23.1,9.9-23.1,24.2C1588,675.8,1598.5,685.5,1611.1,685.5z"/>
	<path class="st8" d="M1666.1,622.6h18.5v9c0,2.9-0.3,5.3-0.3,5.3h0.3c3.8-7.6,13.1-16.1,25.2-16.1c11.9,0,19.5,5.5,22.6,16h0.3
		c4.3-8.4,14.3-16,26.5-16c16.1,0,25.4,9.1,25.4,29.5v49.9h-19.3v-46.2c0-8.8-1.7-15.5-10.6-15.5c-9.9,0-16.4,7.9-18.7,17.6
		c-0.8,3-0.9,6.4-0.9,10v34.1h-19.3v-46.2c0-8.4-1.4-15.5-10.5-15.5c-10,0-16.6,7.9-19,17.8c-0.8,2.9-0.9,6.4-0.9,9.9v34.1h-19.3
		V622.6z"/>
	<path class="st8" d="M1801.8,622.6h17.6v5.6c0,2.9-0.3,5.3-0.3,5.3h0.3c0,0,6.7-12.8,24.9-12.8c21,0,34.4,16.6,34.4,40.6
		c0,24.6-15,40.6-35.4,40.6c-15.4,0-22.2-10.6-22.2-10.6h-0.3c0,0,0.3,2.7,0.3,6.7v32.5h-19.3V622.6z M1839.8,685.7
		c10.6,0,19.5-8.7,19.5-24c0-14.7-7.9-24.3-19.3-24.3c-10,0-19.5,7.3-19.5,24.5C1820.5,673.8,1827.1,685.7,1839.8,685.7z"/>
	<path class="st8" d="M1934.1,651.5h2.6v-1.1c0-10.2-6.4-13.7-14.9-13.7c-11.1,0-21.3,7.5-21.3,7.5l-7.3-13.8c0,0,12-9.6,30.4-9.6
		c20.4,0,32.2,11.3,32.2,30.9v48.5H1938v-6.4c0-3,0.3-5.5,0.3-5.5h-0.3c0.2,0-5.9,13.7-23.6,13.7c-13.8,0-26.3-8.7-26.3-24.2
		C1888.1,653.1,1921.4,651.5,1934.1,651.5z M1919.3,686.9c10.2,0,17.5-10.9,17.5-20.4v-1.8h-3.3c-9.9,0-25.8,1.4-25.8,12.2
		C1907.6,682,1911.4,686.9,1919.3,686.9z"/>
	<path class="st8" d="M1972.8,622.6h18.5v9c0,2.9-0.3,5.3-0.3,5.3h0.3c3.3-6.5,11.9-16.1,27.5-16.1c17.2,0,26.9,9,26.9,29.5v49.9
		h-19.2v-45.9c0-9.4-2.4-15.8-12.3-15.8c-10.3,0-17.9,6.5-20.8,15.8c-1.1,3.2-1.4,6.7-1.4,10.3v35.6h-19.3V622.6z"/>
	<path class="st8" d="M2061.9,712.6c0,0,4.3,3.2,8.7,3.2c5.3,0,10.5-3.2,13.4-10l2.9-6.8l-32.7-76.3h21.7l16.3,44.7
		c1.5,4.1,2.9,10.5,2.9,10.5h0.3c0,0,1.2-6.1,2.6-10.2l15.2-45h21.1l-34.7,89.2c-5.5,14.1-16.3,20.2-28,20.2c-9.3,0-16.1-5-16.1-5
		L2061.9,712.6z"/>
</g>
</svg>
